<?xml version="1.0" encoding="UTF-8" standalone="no"?>
<svg xmlns:xlink="http://www.w3.org/1999/xlink" height="71.6px" width="50.35px" xmlns="http://www.w3.org/2000/svg">
  <g transform="matrix(1, 0, 0, 1, 25.2, 51.0)">
    <path d="M-25.2 1.85 L-25.2 2.05 -25.2 3.2 -25.2 3.4 Q-24.85 11.15 -19.6 17.05 L-18.55 17.65 -18.3 17.75 -17.85 17.95 -17.7 18.05 -17.1 18.25 -16.6 18.45 -16.45 18.45 -15.85 18.65 -14.55 19.0 Q-8.25 20.6 -0.05 20.6 L2.25 20.55 Q11.1 20.3 17.6 18.05 L17.75 17.95 18.2 17.75 19.5 17.05 20.4 16.05 20.5 15.85 20.9 15.35 21.65 14.3 Q24.85 9.35 25.1 3.2 L25.15 1.85 25.05 -1.15 24.95 -2.6 Q23.95 -12.8 18.3 -20.45 L18.25 -20.5 18.2 -20.6 16.15 -23.15 14.65 -24.6 14.55 -24.7 14.45 -24.8 11.6 -26.9 8.95 -28.5 6.95 -31.0 6.9 -31.05 5.6 -32.85 5.45 -33.5 4.75 -36.85 4.75 -36.95 4.45 -39.35 Q3.9 -44.5 4.3 -50.75 L2.1 -50.8 -4.7 -51.0 -4.8 -48.6 Q-4.65 -47.1 -4.5 -45.65 -4.15 -42.85 -4.45 -39.75 L-4.85 -37.2 Q-5.05 -36.2 -5.25 -35.2 -5.5 -34.35 -5.7 -33.55 L-5.8 -33.3 -6.1 -32.85 Q-6.35 -32.15 -6.95 -31.25 L-7.1 -31.0 Q-8.1 -29.5 -9.55 -28.35 L-11.2 -27.25 Q-15.4 -24.15 -17.3 -21.75 L-17.4 -21.65 -18.2 -20.6 -18.3 -20.6 Q-25.2 -11.25 -25.2 1.85" fill="#ffff00" fill-opacity="0.49019608" fill-rule="evenodd" stroke="none">
      <animate attributeName="fill" dur="2s" repeatCount="indefinite" values="#ffff00;#ffff01"/>
      <animate attributeName="fill-opacity" dur="2s" repeatCount="indefinite" values="0.49019608;0.49019608"/>
      <animate attributeName="d" dur="2s" repeatCount="indefinite" values="M-25.2 1.85 L-25.2 2.05 -25.2 3.2 -25.2 3.4 Q-24.85 11.15 -19.6 17.05 L-18.55 17.65 -18.3 17.75 -17.85 17.95 -17.7 18.05 -17.1 18.25 -16.6 18.45 -16.45 18.45 -15.85 18.65 -14.55 19.0 Q-8.25 20.6 -0.05 20.6 L2.25 20.55 Q11.1 20.3 17.6 18.05 L17.75 17.95 18.2 17.75 19.5 17.05 20.4 16.05 20.5 15.85 20.9 15.35 21.65 14.3 Q24.85 9.35 25.1 3.2 L25.15 1.85 25.05 -1.15 24.95 -2.6 Q23.95 -12.8 18.3 -20.45 L18.25 -20.5 18.2 -20.6 16.15 -23.15 14.65 -24.6 14.55 -24.7 14.45 -24.8 11.6 -26.9 8.95 -28.5 6.95 -31.0 6.9 -31.05 5.6 -32.85 5.45 -33.5 4.75 -36.85 4.75 -36.95 4.45 -39.35 Q3.9 -44.5 4.3 -50.75 L2.1 -50.8 -4.7 -51.0 -4.8 -48.6 Q-4.65 -47.1 -4.5 -45.65 -4.15 -42.85 -4.45 -39.75 L-4.85 -37.2 Q-5.05 -36.2 -5.25 -35.2 -5.5 -34.35 -5.7 -33.55 L-5.8 -33.3 -6.1 -32.85 Q-6.35 -32.15 -6.95 -31.25 L-7.1 -31.0 Q-8.1 -29.5 -9.55 -28.35 L-11.2 -27.25 Q-15.4 -24.15 -17.3 -21.75 L-17.4 -21.65 -18.2 -20.6 -18.3 -20.6 Q-25.2 -11.25 -25.2 1.85;M-25.2 1.85 L-25.2 1.85 -25.2 3.0 -25.2 3.2 Q-24.9 10.6 -20.25 16.3 L-19.6 17.05 -19.3 17.25 -18.9 17.45 -18.7 17.55 -18.3 17.75 -17.85 17.95 -17.7 18.05 -17.1 18.25 -15.85 18.65 Q-9.9 20.35 -2.2 20.55 L-0.05 20.6 Q8.25 20.6 14.6 18.95 L14.8 18.85 15.3 18.75 16.4 18.45 17.6 18.05 17.75 17.95 18.2 17.75 19.5 17.05 Q23.4 12.7 24.6 7.3 L24.85 6.0 25.1 3.2 25.15 1.85 Q25.15 -8.1 21.0 -15.85 L21.0 -15.95 21.0 -16.05 19.45 -18.75 18.3 -20.45 18.25 -20.5 18.2 -20.6 16.15 -23.15 14.05 -25.15 11.6 -26.95 11.6 -26.95 9.75 -28.1 8.95 -28.5 6.95 -31.0 6.9 -31.05 5.6 -32.85 Q4.3 -37.55 4.15 -43.45 L4.15 -45.6 -2.25 -45.6 -4.5 -45.6 Q-4.35 -44.25 -4.35 -42.8 -4.3 -40.1 -4.85 -37.2 L-5.45 -34.55 Q-5.9 -32.8 -6.1 -32.85 -6.35 -32.15 -6.95 -31.25 L-7.1 -31.0 -7.35 -30.7 Q-7.8 -30.1 -8.25 -29.55 L-8.45 -29.35 Q-9.65 -28.15 -11.2 -27.25 L-12.7 -26.1 Q-16.7 -22.95 -18.2 -20.6 L-18.3 -20.6 -19.0 -19.6 -19.1 -19.5 Q-25.2 -10.5 -25.2 1.85"/>
    </path>
    <path d="M-25.2 1.85 Q-25.2 -11.25 -18.3 -20.6 L-18.2 -20.6 -17.4 -21.65 -17.3 -21.75 Q-15.4 -24.15 -11.2 -27.25 L-9.55 -28.35 Q-8.1 -29.5 -7.1 -31.0 L-6.95 -31.25 Q-6.35 -32.15 -6.1 -32.85 L-5.8 -33.3 -5.7 -33.55 Q-5.5 -34.35 -5.25 -35.2 -5.05 -36.2 -4.85 -37.2 L-4.45 -39.75 Q-4.15 -42.85 -4.5 -45.65 -4.65 -47.1 -4.8 -48.6 L-4.7 -51.0 2.1 -50.8 4.3 -50.75 Q3.9 -44.5 4.45 -39.35 L4.75 -36.95 4.75 -36.85 5.45 -33.5 5.6 -32.85 6.9 -31.05 6.95 -31.0 8.95 -28.5 11.6 -26.9 14.45 -24.8 14.55 -24.7 14.65 -24.6 16.15 -23.15 18.2 -20.6 18.25 -20.5 18.3 -20.45 Q23.95 -12.8 24.95 -2.6 L25.05 -1.15 25.15 1.85 25.1 3.2 Q24.85 9.35 21.65 14.3 L20.9 15.35 20.5 15.85 20.4 16.05 19.5 17.05 18.2 17.75 17.75 17.95 17.6 18.05 Q11.1 20.3 2.25 20.55 L-0.05 20.6 Q-8.25 20.6 -14.55 19.0 L-15.85 18.65 -16.45 18.45 -16.6 18.45 -17.1 18.25 -17.7 18.05 -17.85 17.95 -18.3 17.75 -18.55 17.65 -19.6 17.05 Q-24.85 11.15 -25.2 3.4 L-25.2 3.2 -25.2 2.05 -25.2 1.85" fill="none" stroke="#000000" stroke-linecap="round" stroke-linejoin="round" stroke-opacity="0.0" stroke-width="1.0">
      <animate attributeName="stroke" dur="2s" repeatCount="indefinite" values="#000000;#000001"/>
      <animate attributeName="stroke-width" dur="2s" repeatCount="indefinite" values="0.0;0.0"/>
      <animate attributeName="fill-opacity" dur="2s" repeatCount="indefinite" values="0.0;0.0"/>
      <animate attributeName="d" dur="2s" repeatCount="indefinite" values="M-25.2 1.85 Q-25.2 -11.25 -18.3 -20.6 L-18.2 -20.6 -17.4 -21.65 -17.3 -21.75 Q-15.4 -24.15 -11.2 -27.25 L-9.55 -28.35 Q-8.1 -29.5 -7.1 -31.0 L-6.95 -31.25 Q-6.35 -32.15 -6.1 -32.85 L-5.8 -33.3 -5.7 -33.55 Q-5.5 -34.35 -5.25 -35.2 -5.05 -36.2 -4.85 -37.2 L-4.45 -39.75 Q-4.15 -42.85 -4.5 -45.65 -4.65 -47.1 -4.8 -48.6 L-4.7 -51.0 2.1 -50.8 4.3 -50.75 Q3.9 -44.5 4.45 -39.35 L4.75 -36.95 4.75 -36.85 5.45 -33.5 5.6 -32.85 6.9 -31.05 6.95 -31.0 8.95 -28.5 11.6 -26.9 14.45 -24.8 14.55 -24.7 14.65 -24.6 16.15 -23.15 18.2 -20.6 18.25 -20.5 18.3 -20.45 Q23.95 -12.8 24.95 -2.6 L25.05 -1.15 25.15 1.85 25.1 3.2 Q24.85 9.35 21.65 14.3 L20.9 15.35 20.5 15.85 20.4 16.05 19.5 17.05 18.2 17.75 17.75 17.95 17.6 18.05 Q11.1 20.3 2.25 20.55 L-0.05 20.6 Q-8.25 20.6 -14.55 19.0 L-15.85 18.65 -16.45 18.45 -16.6 18.45 -17.1 18.25 -17.7 18.05 -17.85 17.95 -18.3 17.75 -18.55 17.65 -19.6 17.05 Q-24.85 11.15 -25.2 3.4 L-25.2 3.2 -25.2 2.05 -25.2 1.85;M-25.2 1.85 Q-25.2 -10.5 -19.1 -19.5 L-19.0 -19.6 -18.3 -20.6 -18.2 -20.6 Q-16.7 -22.95 -12.7 -26.1 L-11.2 -27.25 Q-9.65 -28.15 -8.45 -29.35 L-8.25 -29.55 Q-7.8 -30.1 -7.35 -30.7 L-7.1 -31.0 -6.95 -31.25 Q-6.35 -32.15 -6.1 -32.85 -5.9 -32.8 -5.45 -34.55 L-4.85 -37.2 Q-4.3 -40.1 -4.35 -42.8 -4.35 -44.25 -4.5 -45.6 L-2.25 -45.6 4.15 -45.6 4.15 -43.45 Q4.3 -37.55 5.6 -32.85 L6.9 -31.05 6.95 -31.0 8.95 -28.5 9.75 -28.1 11.6 -26.95 11.6 -26.95 14.05 -25.15 16.15 -23.15 18.2 -20.6 18.25 -20.5 18.3 -20.45 19.45 -18.75 21.0 -16.05 21.0 -15.95 21.0 -15.85 Q25.15 -8.1 25.15 1.85 L25.1 3.2 24.85 6.0 24.6 7.3 Q23.4 12.7 19.5 17.05 L18.2 17.75 17.75 17.95 17.6 18.05 16.4 18.45 15.3 18.75 14.8 18.85 14.6 18.95 Q8.25 20.6 -0.05 20.6 L-2.2 20.55 Q-9.9 20.35 -15.85 18.65 L-17.1 18.25 -17.7 18.05 -17.85 17.95 -18.3 17.75 -18.7 17.55 -18.9 17.45 -19.3 17.25 -19.6 17.05 -20.25 16.3 Q-24.9 10.6 -25.2 3.2 L-25.2 3.0 -25.2 1.85 -25.2 1.85"/>
    </path>
  </g>
</svg>
