<?xml version="1.0" encoding="UTF-8" standalone="no"?>
<svg xmlns:xlink="http://www.w3.org/1999/xlink" height="45.7px" width="3.85px" xmlns="http://www.w3.org/2000/svg">
  <g transform="matrix(1, 0, 0, 1, -521.55, -269.9)">
    <path d="M521.6 275.6 Q521.6 278.9 522.15 281.25 522.75 283.6 523.6 283.6 524.45 283.6 525.0 281.25 525.6 278.9 525.1 275.5 524.55 272.1 522.15 269.95 521.6 272.3 521.6 275.6" fill="#d7dedf" fill-opacity="0.77254903" fill-rule="evenodd" stroke="none">
      <animate attributeName="fill" dur="2s" repeatCount="indefinite" values="#d7dedf;#d7dee0"/>
      <animate attributeName="fill-opacity" dur="2s" repeatCount="indefinite" values="0.77254903;0.77254903"/>
      <animate attributeName="d" dur="2s" repeatCount="indefinite" values="M521.6 275.6 Q521.6 278.9 522.15 281.25 522.75 283.6 523.6 283.6 524.45 283.6 525.0 281.25 525.6 278.9 525.1 275.5 524.55 272.1 522.15 269.95 521.6 272.3 521.6 275.6;M521.6 307.6 Q521.6 310.9 522.15 313.25 522.75 315.6 523.6 315.6 524.45 315.6 525.0 313.25 525.6 310.9 525.1 307.5 524.55 304.1 522.15 301.95 521.6 304.3 521.6 307.6"/>
    </path>
    <path d="M521.6 275.6 Q521.6 272.3 522.15 269.95 524.55 272.1 525.1 275.5 525.6 278.9 525.0 281.25 524.45 283.6 523.6 283.6 522.75 283.6 522.15 281.25 521.6 278.9 521.6 275.6 521.6 272.3 522.15 269.95 524.55 272.1 525.1 275.5 525.6 278.9 525.0 281.25 524.45 283.6 523.6 283.6 522.75 283.6 522.15 281.25 521.6 278.9 521.6 275.6" fill="none" stroke="#999999" stroke-linecap="round" stroke-linejoin="round" stroke-width="0.1">
      <animate attributeName="stroke" dur="2s" repeatCount="indefinite" values="#999999;#000001"/>
      <animate attributeName="stroke-width" dur="2s" repeatCount="indefinite" values="0.1;0.0"/>
      <animate attributeName="fill-opacity" dur="2s" repeatCount="indefinite" values="1.0;0.0"/>
      <animate attributeName="d" dur="2s" repeatCount="indefinite" values="M521.6 275.6 Q521.6 272.3 522.15 269.95 524.55 272.1 525.1 275.5 525.6 278.9 525.0 281.25 524.45 283.6 523.6 283.6 522.75 283.6 522.15 281.25 521.6 278.9 521.6 275.6 521.6 272.3 522.15 269.95 524.55 272.1 525.1 275.5 525.6 278.9 525.0 281.25 524.45 283.6 523.6 283.6 522.75 283.6 522.15 281.25 521.6 278.9 521.6 275.6;M521.6 307.6 Q521.6 304.3 522.15 301.95 524.55 304.1 525.1 307.5 525.6 310.9 525.0 313.25 524.45 315.6 523.6 315.6 522.75 315.6 522.15 313.25 521.6 310.9 521.6 307.6 521.6 304.3 522.15 301.95 524.55 304.1 525.1 307.5 525.6 310.9 525.0 313.25 524.45 315.6 523.6 315.6 522.75 315.6 522.15 313.25 521.6 310.9 521.6 307.6"/>
    </path>
  </g>
</svg>
