<?xml version="1.0" encoding="UTF-8" standalone="no"?>
<svg xmlns:xlink="http://www.w3.org/1999/xlink" height="31.2px" width="26.8px" xmlns="http://www.w3.org/2000/svg">
  <g transform="matrix(1, 0, 0, 1, 25.4, -221.0)">
    <path d="M-25.4 225.4 L-25.35 225.45 -25.3 225.6 -22.9 226.6 Q-21.15 226.15 -16.35 227.3 -11.65 228.45 -9.85 229.85 L-8.9 230.85 -8.0 231.05 Q-7.6 231.2 -7.25 231.4 L-6.65 231.7 -6.0 232.1 -4.95 233.1 -4.45 233.25 -4.35 234.35 -1.0 245.9 -0.9 246.2 -0.7 247.0 -0.6 247.35 -0.2 248.7 -0.1 249.1 0.25 250.05 Q1.35 253.6 0.25 249.2 -0.2 247.45 -0.65 245.7 L-0.75 245.3 -0.85 245.0 -4.55 230.9 Q-5.2 230.7 -5.55 229.8 L-5.65 229.6 -6.15 227.7 Q-6.35 226.55 -6.55 226.65 -11.1 224.45 -12.85 224.7 L-13.25 224.7 Q-14.15 224.65 -15.05 224.65 L-17.3 223.4 -17.5 223.35 Q-17.9 222.85 -23.65 221.0 L-24.15 222.15 -24.9 224.0 -25.4 225.4" fill="#ffcc33" fill-rule="evenodd" stroke="none">
      <animate attributeName="fill" dur="2s" repeatCount="indefinite" values="#ffcc33;#ffcc34"/>
      <animate attributeName="fill-opacity" dur="2s" repeatCount="indefinite" values="1.0;1.0"/>
      <animate attributeName="d" dur="2s" repeatCount="indefinite" values="M-25.4 225.4 L-25.35 225.45 -25.3 225.6 -22.9 226.6 Q-21.15 226.15 -16.35 227.3 -11.65 228.45 -9.85 229.85 L-8.9 230.85 -8.0 231.05 Q-7.6 231.2 -7.25 231.4 L-6.65 231.7 -6.0 232.1 -4.95 233.1 -4.45 233.25 -4.35 234.35 -1.0 245.9 -0.9 246.2 -0.7 247.0 -0.6 247.35 -0.2 248.7 -0.1 249.1 0.25 250.05 Q1.35 253.6 0.25 249.2 -0.2 247.45 -0.65 245.7 L-0.75 245.3 -0.85 245.0 -4.55 230.9 Q-5.2 230.7 -5.55 229.8 L-5.65 229.6 -6.15 227.7 Q-6.35 226.55 -6.55 226.65 -11.1 224.45 -12.85 224.7 L-13.25 224.7 Q-14.15 224.65 -15.05 224.65 L-17.3 223.4 -17.5 223.35 Q-17.9 222.85 -23.65 221.0 L-24.15 222.15 -24.9 224.0 -25.4 225.4;M-8.45 226.2 L-8.45 226.2 -8.45 226.2 -7.95 227.7 Q-7.25 229.65 -6.55 231.6 -5.8 233.65 -5.1 235.7 L-4.2 236.0 -3.7 236.1 Q-3.4 236.2 -3.15 236.25 L-3.15 236.7 -3.1 237.2 -2.9 238.05 -2.8 238.35 -2.6 238.95 -0.5 246.35 -0.4 246.55 -0.2 247.25 -0.1 247.45 0.1 248.2 0.15 248.4 0.35 249.15 Q0.75 250.4 1.15 251.65 1.7 253.15 1.05 250.65 L0.95 250.4 0.95 250.2 -1.35 241.55 Q-1.45 241.1 -1.55 240.65 L-1.55 240.45 -1.8 239.35 Q-1.9 239.0 -2.0 238.7 -2.55 236.7 -3.05 234.75 L-3.15 234.45 Q-3.35 234.4 -3.75 233.95 L-4.8 232.55 -4.9 232.35 Q-6.05 230.5 -7.15 228.65 L-7.45 228.05 -8.05 227.0 -8.45 226.2"/>
    </path>
    <path d="M-25.4 225.4 L-24.9 224.0 -24.15 222.15 -23.65 221.0 Q-17.9 222.85 -17.5 223.35 L-17.3 223.4 -15.05 224.65 Q-14.15 224.65 -13.25 224.7 L-12.85 224.7 Q-11.1 224.45 -6.55 226.65 -6.35 226.55 -6.15 227.7 L-5.65 229.6 -5.55 229.8 Q-5.2 230.7 -4.55 230.9 L-0.85 245.0 -0.75 245.3 -0.65 245.7 Q-0.2 247.45 0.25 249.2 1.35 253.6 0.25 250.05 L-0.1 249.1 -0.2 248.7 -0.6 247.35 -0.7 247.0 -0.9 246.2 -1.0 245.9 -4.35 234.35 -4.45 233.25 -4.95 233.1 -6.0 232.1 -6.65 231.7 -7.25 231.4 Q-7.6 231.2 -8.0 231.05 L-8.9 230.85 -9.85 229.85 Q-11.65 228.45 -16.35 227.3 -21.15 226.15 -22.9 226.6 L-25.3 225.6 -25.35 225.45 -25.4 225.4" fill="none" stroke="#000000" stroke-linecap="round" stroke-linejoin="round" stroke-opacity="0.0" stroke-width="1.0">
      <animate attributeName="stroke" dur="2s" repeatCount="indefinite" values="#000000;#000001"/>
      <animate attributeName="stroke-width" dur="2s" repeatCount="indefinite" values="0.0;0.0"/>
      <animate attributeName="fill-opacity" dur="2s" repeatCount="indefinite" values="0.0;0.0"/>
      <animate attributeName="d" dur="2s" repeatCount="indefinite" values="M-25.4 225.4 L-24.9 224.0 -24.15 222.15 -23.65 221.0 Q-17.9 222.85 -17.5 223.35 L-17.3 223.4 -15.05 224.65 Q-14.15 224.65 -13.25 224.7 L-12.85 224.7 Q-11.1 224.45 -6.55 226.65 -6.35 226.55 -6.15 227.7 L-5.65 229.6 -5.55 229.8 Q-5.2 230.7 -4.55 230.9 L-0.85 245.0 -0.75 245.3 -0.65 245.7 Q-0.2 247.45 0.25 249.2 1.35 253.6 0.25 250.05 L-0.1 249.1 -0.2 248.7 -0.6 247.35 -0.7 247.0 -0.9 246.2 -1.0 245.9 -4.35 234.35 -4.45 233.25 -4.95 233.1 -6.0 232.1 -6.65 231.7 -7.25 231.4 Q-7.6 231.2 -8.0 231.05 L-8.9 230.85 -9.85 229.85 Q-11.65 228.45 -16.35 227.3 -21.15 226.15 -22.9 226.6 L-25.3 225.6 -25.35 225.45 -25.4 225.4;M-8.45 226.2 L-8.05 227.0 -7.45 228.05 -7.15 228.65 Q-6.05 230.5 -4.9 232.35 L-4.8 232.55 -3.75 233.95 Q-3.35 234.4 -3.15 234.45 L-3.05 234.75 Q-2.55 236.7 -2.0 238.7 -1.9 239.0 -1.8 239.35 L-1.55 240.45 -1.55 240.65 Q-1.45 241.1 -1.35 241.55 L0.95 250.2 0.95 250.4 1.05 250.65 Q1.7 253.15 1.15 251.65 0.75 250.4 0.35 249.15 L0.15 248.4 0.1 248.2 -0.1 247.45 -0.2 247.25 -0.4 246.55 -0.5 246.35 -2.6 238.95 -2.8 238.35 -2.9 238.05 -3.1 237.2 -3.15 236.7 -3.15 236.25 Q-3.4 236.2 -3.7 236.1 L-4.2 236.0 -5.1 235.7 Q-5.8 233.65 -6.55 231.6 -7.25 229.65 -7.95 227.7 L-8.45 226.2 -8.45 226.2 -8.45 226.2"/>
    </path>
  </g>
</svg>
