<?xml version="1.0" encoding="UTF-8" standalone="no"?>
<svg xmlns:xlink="http://www.w3.org/1999/xlink" height="73.75px" width="50.35px" xmlns="http://www.w3.org/2000/svg">
  <g transform="matrix(1, 0, 0, 1, 25.2, 53.15)">
    <path d="M-25.2 1.85 L-25.2 3.2 Q-24.9 11.1 -19.6 17.05 L-18.3 17.75 -17.85 17.95 -17.7 18.05 -15.85 18.65 Q-9.1 20.6 -0.05 20.6 10.3 20.6 17.6 18.05 L17.75 17.95 18.2 17.75 19.5 17.05 Q24.8 11.1 25.1 3.2 L25.15 1.85 Q25.15 -11.15 18.3 -20.45 L18.25 -20.5 18.2 -20.6 16.15 -23.15 Q13.15 -26.3 8.95 -28.5 L6.9 -31.05 5.7 -32.75 5.7 -32.75 Q3.85 -34.85 4.1 -53.15 L-4.7 -53.15 Q-4.55 -53.15 -4.45 -46.0 -4.35 -38.9 -6.1 -32.75 L-6.1 -32.75 -6.95 -31.25 Q-8.5 -28.8 -11.2 -27.25 -16.45 -23.35 -18.2 -20.6 L-18.3 -20.6 Q-25.2 -11.25 -25.2 1.85" fill="#66cccc" fill-opacity="0.7647059" fill-rule="evenodd" stroke="none">
      <animate attributeName="fill" dur="2s" repeatCount="indefinite" values="#66cccc;#66cccd"/>
      <animate attributeName="fill-opacity" dur="2s" repeatCount="indefinite" values="0.7647059;0.7647059"/>
      <animate attributeName="d" dur="2s" repeatCount="indefinite" values="M-25.2 1.85 L-25.2 3.2 Q-24.9 11.1 -19.6 17.05 L-18.3 17.75 -17.85 17.95 -17.7 18.05 -15.85 18.65 Q-9.1 20.6 -0.05 20.6 10.3 20.6 17.6 18.05 L17.75 17.95 18.2 17.75 19.5 17.05 Q24.8 11.1 25.1 3.2 L25.15 1.85 Q25.15 -11.15 18.3 -20.45 L18.25 -20.5 18.2 -20.6 16.15 -23.15 Q13.15 -26.3 8.95 -28.5 L6.9 -31.05 5.7 -32.75 5.7 -32.75 Q3.85 -34.85 4.1 -53.15 L-4.7 -53.15 Q-4.55 -53.15 -4.45 -46.0 -4.35 -38.9 -6.1 -32.75 L-6.1 -32.75 -6.95 -31.25 Q-8.5 -28.8 -11.2 -27.25 -16.45 -23.35 -18.2 -20.6 L-18.3 -20.6 Q-25.2 -11.25 -25.2 1.85;M-25.2 1.85 L-25.2 3.2 Q-24.9 11.1 -19.6 17.05 L-18.3 17.75 -17.85 17.95 -17.7 18.05 -15.85 18.65 Q-9.1 20.6 -0.05 20.6 10.3 20.6 17.6 18.05 L17.75 17.95 18.2 17.75 19.5 17.05 Q24.8 11.1 25.1 3.2 L25.15 1.85 Q25.15 -11.15 18.3 -20.45 L18.25 -20.5 18.2 -20.6 16.15 -23.15 Q13.15 -26.3 8.95 -28.5 L6.9 -31.05 5.7 -32.75 5.7 -32.75 Q4.2 -34.45 4.05 -46.9 L-4.45 -46.9 Q-4.45 -46.45 -4.45 -46.0 -4.35 -38.9 -6.1 -32.75 L-6.1 -32.75 -6.95 -31.25 Q-8.5 -28.8 -11.2 -27.25 -16.45 -23.35 -18.2 -20.6 L-18.3 -20.6 Q-25.2 -11.25 -25.2 1.85"/>
    </path>
    <path d="M-25.2 1.85 Q-25.2 -11.25 -18.3 -20.6 L-18.2 -20.6 Q-16.45 -23.35 -11.2 -27.25 -8.5 -28.8 -6.95 -31.25 L-6.1 -32.75 -6.1 -32.75 Q-4.35 -38.9 -4.45 -46.0 -4.55 -53.15 -4.7 -53.15 L4.1 -53.15 Q3.85 -34.85 5.7 -32.75 L5.7 -32.75 6.9 -31.05 8.95 -28.5 Q13.15 -26.3 16.15 -23.15 L18.2 -20.6 18.25 -20.5 18.3 -20.45 Q25.15 -11.15 25.15 1.85 L25.1 3.2 Q24.8 11.1 19.5 17.05 L18.2 17.75 17.75 17.95 17.6 18.05 Q10.3 20.6 -0.05 20.6 -9.1 20.6 -15.85 18.65 L-17.7 18.05 -17.85 17.95 -18.3 17.75 -19.6 17.05 Q-24.9 11.1 -25.2 3.2 L-25.2 1.85" fill="none" stroke="#000000" stroke-linecap="round" stroke-linejoin="round" stroke-opacity="0.0" stroke-width="1.0">
      <animate attributeName="stroke" dur="2s" repeatCount="indefinite" values="#000000;#000001"/>
      <animate attributeName="stroke-width" dur="2s" repeatCount="indefinite" values="0.0;0.0"/>
      <animate attributeName="fill-opacity" dur="2s" repeatCount="indefinite" values="0.0;0.0"/>
      <animate attributeName="d" dur="2s" repeatCount="indefinite" values="M-25.2 1.85 Q-25.2 -11.25 -18.3 -20.6 L-18.2 -20.6 Q-16.45 -23.35 -11.2 -27.25 -8.5 -28.8 -6.95 -31.25 L-6.1 -32.75 -6.1 -32.75 Q-4.35 -38.9 -4.45 -46.0 -4.55 -53.15 -4.7 -53.15 L4.1 -53.15 Q3.85 -34.85 5.7 -32.75 L5.7 -32.75 6.9 -31.05 8.95 -28.5 Q13.15 -26.3 16.15 -23.15 L18.2 -20.6 18.25 -20.5 18.3 -20.45 Q25.15 -11.15 25.15 1.85 L25.1 3.2 Q24.8 11.1 19.5 17.05 L18.2 17.75 17.75 17.95 17.6 18.05 Q10.3 20.6 -0.05 20.6 -9.1 20.6 -15.85 18.65 L-17.7 18.05 -17.85 17.95 -18.3 17.75 -19.6 17.05 Q-24.9 11.1 -25.2 3.2 L-25.2 1.85;M-25.2 1.85 Q-25.2 -11.25 -18.3 -20.6 L-18.2 -20.6 Q-16.45 -23.35 -11.2 -27.25 -8.5 -28.8 -6.95 -31.25 L-6.1 -32.75 -6.1 -32.75 Q-4.35 -38.9 -4.45 -46.0 -4.45 -46.45 -4.45 -46.9 L4.05 -46.9 Q4.2 -34.45 5.7 -32.75 L5.7 -32.75 6.9 -31.05 8.95 -28.5 Q13.15 -26.3 16.15 -23.15 L18.2 -20.6 18.25 -20.5 18.3 -20.45 Q25.15 -11.15 25.15 1.85 L25.1 3.2 Q24.8 11.1 19.5 17.05 L18.2 17.75 17.75 17.95 17.6 18.05 Q10.3 20.6 -0.05 20.6 -9.1 20.6 -15.85 18.65 L-17.7 18.05 -17.85 17.95 -18.3 17.75 -19.6 17.05 Q-24.9 11.1 -25.2 3.2 L-25.2 1.85"/>
    </path>
  </g>
</svg>
