<?xml version="1.0" encoding="UTF-8" standalone="no"?>
<svg xmlns:xlink="http://www.w3.org/1999/xlink" height="41.1px" width="37.5px" xmlns="http://www.w3.org/2000/svg">
  <g transform="matrix(1, 0, 0, 1, 36.85, -211.05)">
    <path d="M-36.85 224.55 L-36.8 224.65 -36.75 224.8 -27.75 226.3 Q-27.45 226.35 -27.15 226.4 L-24.45 226.9 -19.65 227.7 -18.75 227.85 -18.25 227.95 -17.85 228.05 -17.65 228.05 -17.55 228.05 -17.05 228.15 Q-16.7 228.2 -16.35 228.25 L-14.95 228.45 -14.05 228.55 -13.95 228.55 -13.45 228.75 -9.55 228.75 -9.55 229.25 -5.8 229.25 -5.8 230.7 -4.3 231.45 Q-1.6 232.5 -5.2 226.25 L-6.9 223.45 -19.8 217.05 -23.2 215.35 Q-27.45 213.2 -31.7 211.05 L-32.65 211.9 -32.85 212.1 -34.35 213.6 -35.3 214.65 -35.75 217.45 -35.75 217.55 -36.05 219.55 -36.4 221.55 -36.5 222.45 -36.85 224.55" fill="#ef0381" fill-opacity="0.16862746" fill-rule="evenodd" stroke="none">
      <animate attributeName="fill" dur="2s" repeatCount="indefinite" values="#ef0381;#ef0382"/>
      <animate attributeName="fill-opacity" dur="2s" repeatCount="indefinite" values="0.16862746;0.16862746"/>
      <animate attributeName="d" dur="2s" repeatCount="indefinite" values="M-36.85 224.55 L-36.8 224.65 -36.75 224.8 -27.75 226.3 Q-27.45 226.35 -27.15 226.4 L-24.45 226.9 -19.65 227.7 -18.75 227.85 -18.25 227.95 -17.85 228.05 -17.65 228.05 -17.55 228.05 -17.05 228.15 Q-16.7 228.2 -16.35 228.25 L-14.95 228.45 -14.05 228.55 -13.95 228.55 -13.45 228.75 -9.55 228.75 -9.55 229.25 -5.8 229.25 -5.8 230.7 -4.3 231.45 Q-1.6 232.5 -5.2 226.25 L-6.9 223.45 -19.8 217.05 -23.2 215.35 Q-27.45 213.2 -31.7 211.05 L-32.65 211.9 -32.85 212.1 -34.35 213.6 -35.3 214.65 -35.75 217.45 -35.75 217.55 -36.05 219.55 -36.4 221.55 -36.5 222.45 -36.85 224.55;M-36.7 224.85 L-36.7 224.85 -36.6 225.1 -24.05 227.2 Q-23.75 226.9 -23.3 226.95 L-19.5 226.95 -12.55 228.45 -11.1 228.9 -10.35 228.9 -9.65 229.05 -9.4 229.05 -9.4 229.2 -8.7 229.05 Q-7.95 229.1 -7.65 229.55 L-5.65 229.55 -5.65 230.85 -5.65 231.0 -5.35 231.9 -3.75 237.5 -3.55 238.2 -2.1 243.25 -1.55 245.15 -0.9 247.35 Q1.95 256.95 -0.5 247.35 L-1.6 243.05 -6.75 223.75 -12.05 223.35 Q-19.3 219.8 -24.15 217.6 L-26.05 216.75 -26.3 216.75 -29.0 216.3 -30.95 215.95 -34.85 215.25 -35.15 215.15 -35.6 217.75 -36.05 220.6 -36.25 221.85 -36.7 224.85"/>
    </path>
    <path d="M-36.85 224.55 L-36.5 222.45 -36.4 221.55 -36.05 219.55 -35.75 217.55 -35.75 217.45 -35.3 214.65 -34.35 213.6 -32.85 212.1 -32.65 211.9 -31.7 211.05 Q-27.45 213.2 -23.2 215.35 L-19.8 217.05 -6.9 223.45 -5.2 226.25 Q-1.6 232.5 -4.3 231.45 L-5.8 230.7 -5.8 229.25 -9.55 229.25 -9.55 228.75 -13.45 228.75 -13.95 228.55 -14.05 228.55 -14.95 228.45 -16.35 228.25 Q-16.7 228.2 -17.05 228.15 L-17.55 228.05 -17.65 228.05 -17.85 228.05 -18.25 227.95 -18.75 227.85 -19.65 227.7 -24.45 226.9 -27.15 226.4 Q-27.45 226.35 -27.75 226.3 L-36.75 224.8 -36.8 224.65 -36.85 224.55" fill="none" stroke="#000000" stroke-linecap="round" stroke-linejoin="round" stroke-opacity="0.0" stroke-width="1.0">
      <animate attributeName="stroke" dur="2s" repeatCount="indefinite" values="#000000;#000001"/>
      <animate attributeName="stroke-width" dur="2s" repeatCount="indefinite" values="0.0;0.0"/>
      <animate attributeName="fill-opacity" dur="2s" repeatCount="indefinite" values="0.0;0.0"/>
      <animate attributeName="d" dur="2s" repeatCount="indefinite" values="M-36.85 224.55 L-36.5 222.45 -36.4 221.55 -36.05 219.55 -35.75 217.55 -35.75 217.45 -35.3 214.65 -34.35 213.6 -32.85 212.1 -32.65 211.9 -31.7 211.05 Q-27.45 213.2 -23.2 215.35 L-19.8 217.05 -6.9 223.45 -5.2 226.25 Q-1.6 232.5 -4.3 231.45 L-5.8 230.7 -5.8 229.25 -9.55 229.25 -9.55 228.75 -13.45 228.75 -13.95 228.55 -14.05 228.55 -14.95 228.45 -16.35 228.25 Q-16.7 228.2 -17.05 228.15 L-17.55 228.05 -17.65 228.05 -17.85 228.05 -18.25 227.95 -18.75 227.85 -19.65 227.7 -24.45 226.9 -27.15 226.4 Q-27.45 226.35 -27.75 226.3 L-36.75 224.8 -36.8 224.65 -36.85 224.55;M-36.7 224.85 L-36.25 221.85 -36.05 220.6 -35.6 217.75 -35.15 215.15 -34.85 215.25 -30.95 215.95 -29.0 216.3 -26.3 216.75 -26.05 216.75 -24.15 217.6 Q-19.3 219.8 -12.05 223.35 L-6.75 223.75 -1.6 243.05 -0.5 247.35 Q1.95 256.95 -0.9 247.35 L-1.55 245.15 -2.1 243.25 -3.55 238.2 -3.75 237.5 -5.35 231.9 -5.65 231.0 -5.65 230.85 -5.65 229.55 -7.65 229.55 Q-7.95 229.1 -8.7 229.05 L-9.4 229.2 -9.4 229.05 -9.65 229.05 -10.35 228.9 -11.1 228.9 -12.55 228.45 -19.5 226.95 -23.3 226.95 Q-23.75 226.9 -24.05 227.2 L-36.6 225.1 -36.7 224.85 -36.7 224.85"/>
    </path>
  </g>
</svg>
