<?xml version="1.0" encoding="UTF-8" standalone="no"?>
<svg xmlns:xlink="http://www.w3.org/1999/xlink" height="26.8px" width="11.3px" xmlns="http://www.w3.org/2000/svg">
  <g transform="matrix(1, 0, 0, 1, 8.45, -226.2)">
    <path d="M-8.45 226.2 L-5.1 235.7 -3.15 236.25 -3.1 237.2 -0.6 245.75 -0.4 246.55 0.15 248.4 Q2.15 255.0 0.95 250.2 L-0.15 245.7 -1.55 240.45 -3.15 234.45 Q-4.15 234.1 -8.35 226.4 L-8.45 226.2" fill="#ef0381" fill-opacity="0.16862746" fill-rule="evenodd" stroke="none">
      <animate attributeName="fill" dur="2s" repeatCount="indefinite" values="#ef0381;#ef0382"/>
      <animate attributeName="fill-opacity" dur="2s" repeatCount="indefinite" values="0.16862746;0.16862746"/>
      <animate attributeName="d" dur="2s" repeatCount="indefinite" values="M-8.45 226.2 L-5.1 235.7 -3.15 236.25 -3.1 237.2 -0.6 245.75 -0.4 246.55 0.15 248.4 Q2.15 255.0 0.95 250.2 L-0.15 245.7 -1.55 240.45 -3.15 234.45 Q-4.15 234.1 -8.35 226.4 L-8.45 226.2;M-3.4 232.05 L-1.2 239.6 -0.8 241.05 -0.6 241.75 1.3 248.2 1.4 248.6 1.85 250.0 Q3.4 255.15 2.55 251.5 L1.7 248.2 0.6 244.15 -0.8 239.55 Q-2.0 235.85 -3.2 232.15 L-3.4 232.05"/>
    </path>
    <path d="M-8.45 226.2 L-8.35 226.4 Q-4.15 234.1 -3.15 234.45 L-1.55 240.45 -0.15 245.7 0.95 250.2 Q2.15 255.0 0.15 248.4 L-0.4 246.55 -0.6 245.75 -3.1 237.2 -3.15 236.25 -5.1 235.7 -8.45 226.2" fill="none" stroke="#000000" stroke-linecap="round" stroke-linejoin="round" stroke-opacity="0.0" stroke-width="1.0">
      <animate attributeName="stroke" dur="2s" repeatCount="indefinite" values="#000000;#000001"/>
      <animate attributeName="stroke-width" dur="2s" repeatCount="indefinite" values="0.0;0.0"/>
      <animate attributeName="fill-opacity" dur="2s" repeatCount="indefinite" values="0.0;0.0"/>
      <animate attributeName="d" dur="2s" repeatCount="indefinite" values="M-8.45 226.2 L-8.35 226.4 Q-4.15 234.1 -3.15 234.45 L-1.55 240.45 -0.15 245.7 0.95 250.2 Q2.15 255.0 0.15 248.4 L-0.4 246.55 -0.6 245.75 -3.1 237.2 -3.15 236.25 -5.1 235.7 -8.45 226.2;M-3.4 232.05 L-3.2 232.15 Q-2.0 235.85 -0.8 239.55 L0.6 244.15 1.7 248.2 2.55 251.5 Q3.4 255.15 1.85 250.0 L1.4 248.6 1.3 248.2 -0.6 241.75 -0.8 241.05 -1.2 239.6 -3.4 232.05"/>
    </path>
  </g>
</svg>
