<?xml version="1.0" encoding="UTF-8" standalone="no"?>
<svg xmlns:xlink="http://www.w3.org/1999/xlink" height="65.75px" width="50.35px" xmlns="http://www.w3.org/2000/svg">
  <g transform="matrix(1, 0, 0, 1, 25.2, 45.15)">
    <path d="M-25.2 1.85 L-25.2 1.85 -25.2 3.1 -25.2 3.2 Q-24.9 11.1 -19.6 17.05 L-19.1 17.35 -18.3 17.75 -17.85 17.95 -17.75 18.05 -17.7 18.05 -17.3 18.15 -17.1 18.25 -15.85 18.65 -15.15 18.85 Q-8.65 20.6 -0.05 20.6 L1.35 20.6 Q10.8 20.4 17.6 18.05 L17.75 17.95 18.2 17.75 19.5 17.05 19.6 16.95 19.7 16.85 20.3 16.15 21.0 15.2 Q24.85 9.9 25.1 3.2 L25.15 1.85 25.1 0.2 25.05 -1.2 Q24.35 -12.25 18.3 -20.45 L18.25 -20.5 18.2 -20.6 16.15 -23.15 15.85 -23.45 15.75 -23.55 15.65 -23.7 13.05 -25.9 8.95 -28.5 6.9 -31.05 6.4 -31.75 6.4 -31.75 6.2 -32.15 4.8 -35.6 4.6 -36.3 4.6 -36.3 Q3.05 -41.35 4.25 -44.95 L4.05 -44.6 4.05 -45.0 3.05 -45.15 2.45 -45.15 -4.55 -45.15 -4.8 -44.7 -4.7 -43.6 Q-4.25 -38.45 -5.95 -33.45 L-5.95 -33.45 -6.25 -32.65 -6.6 -31.75 -6.6 -31.75 -6.95 -31.25 Q-8.1 -29.4 -9.95 -28.05 L-11.2 -27.25 Q-15.65 -23.95 -17.55 -21.5 L-17.65 -21.4 -18.2 -20.6 -18.3 -20.6 Q-25.2 -11.25 -25.2 1.85" fill="#ffff66" fill-opacity="0.49803922" fill-rule="evenodd" stroke="none">
      <animate attributeName="fill" dur="2s" repeatCount="indefinite" values="#ffff66;#ffff67"/>
      <animate attributeName="fill-opacity" dur="2s" repeatCount="indefinite" values="0.49803922;0.49803922"/>
      <animate attributeName="d" dur="2s" repeatCount="indefinite" values="M-25.2 1.85 L-25.2 1.85 -25.2 3.1 -25.2 3.2 Q-24.9 11.1 -19.6 17.05 L-19.1 17.35 -18.3 17.75 -17.85 17.95 -17.75 18.05 -17.7 18.05 -17.3 18.15 -17.1 18.25 -15.85 18.65 -15.15 18.85 Q-8.65 20.6 -0.05 20.6 L1.35 20.6 Q10.8 20.4 17.6 18.05 L17.75 17.95 18.2 17.75 19.5 17.05 19.6 16.95 19.7 16.85 20.3 16.15 21.0 15.2 Q24.85 9.9 25.1 3.2 L25.15 1.85 25.1 0.2 25.05 -1.2 Q24.35 -12.25 18.3 -20.45 L18.25 -20.5 18.2 -20.6 16.15 -23.15 15.85 -23.45 15.75 -23.55 15.65 -23.7 13.05 -25.9 8.95 -28.5 6.9 -31.05 6.4 -31.75 6.4 -31.75 6.2 -32.15 4.8 -35.6 4.6 -36.3 4.6 -36.3 Q3.05 -41.35 4.25 -44.95 L4.05 -44.6 4.05 -45.0 3.05 -45.15 2.45 -45.15 -4.55 -45.15 -4.8 -44.7 -4.7 -43.6 Q-4.25 -38.45 -5.95 -33.45 L-5.95 -33.45 -6.25 -32.65 -6.6 -31.75 -6.6 -31.75 -6.95 -31.25 Q-8.1 -29.4 -9.95 -28.05 L-11.2 -27.25 Q-15.65 -23.95 -17.55 -21.5 L-17.65 -21.4 -18.2 -20.6 -18.3 -20.6 Q-25.2 -11.25 -25.2 1.85;M-25.2 1.85 L-25.2 2.05 -25.2 3.2 -25.2 3.4 Q-24.85 10.95 -19.9 16.65 L-19.6 17.05 -18.85 17.5 -18.4 17.75 -18.3 17.75 -18.2 17.85 -17.85 17.95 -17.7 18.05 -16.45 18.45 -15.85 18.65 Q-9.6 20.45 -1.35 20.6 L-0.05 20.6 Q8.9 20.6 15.65 18.75 L15.85 18.65 16.35 18.5 17.4 18.15 17.6 18.05 17.75 17.95 18.2 17.75 19.5 17.05 Q23.8 12.2 24.8 6.05 L24.95 4.8 25.1 3.2 25.15 1.85 Q25.15 -8.95 20.55 -17.15 L20.45 -17.25 20.35 -17.35 18.6 -20.05 18.3 -20.45 18.25 -20.5 18.2 -20.6 16.15 -23.15 12.8 -26.1 10.1 -27.85 9.6 -28.15 9.6 -28.15 8.95 -28.5 6.9 -31.05 6.4 -31.75 6.4 -31.75 Q4.45 -35.9 3.9 -39.3 L3.8 -39.75 3.75 -40.15 3.7 -41.05 3.7 -41.65 -3.0 -41.65 -3.6 -41.65 -4.6 -41.65 Q-4.55 -36.6 -6.6 -31.75 L-6.6 -31.75 -6.95 -31.25 -7.5 -30.45 -7.5 -30.45 -8.0 -29.85 Q-9.3 -28.35 -11.2 -27.25 L-12.35 -26.4 Q-16.65 -23.05 -18.2 -20.6 L-18.3 -20.6 -18.8 -19.9 -18.9 -19.8 Q-25.2 -10.7 -25.2 1.85"/>
    </path>
    <path d="M-25.2 1.85 Q-25.2 -11.25 -18.3 -20.6 L-18.2 -20.6 -17.65 -21.4 -17.55 -21.5 Q-15.65 -23.95 -11.2 -27.25 L-9.95 -28.05 Q-8.1 -29.4 -6.95 -31.25 L-6.6 -31.75 -6.6 -31.75 -6.25 -32.65 -5.95 -33.45 -5.95 -33.45 Q-4.25 -38.45 -4.7 -43.6 L-4.8 -44.7 -4.55 -45.15 2.45 -45.15 3.05 -45.15 4.05 -45.0 4.05 -44.6 4.25 -44.95 Q3.05 -41.35 4.6 -36.3 L4.6 -36.3 4.8 -35.6 6.2 -32.15 6.4 -31.75 6.4 -31.75 6.9 -31.05 8.95 -28.5 13.05 -25.9 15.65 -23.7 15.75 -23.55 15.85 -23.45 16.15 -23.15 18.2 -20.6 18.25 -20.5 18.3 -20.45 Q24.35 -12.25 25.05 -1.2 L25.1 0.2 25.15 1.85 25.1 3.2 Q24.85 9.9 21.0 15.2 L20.3 16.15 19.7 16.85 19.6 16.95 19.5 17.05 18.2 17.75 17.75 17.95 17.6 18.05 Q10.8 20.4 1.35 20.6 L-0.05 20.6 Q-8.65 20.6 -15.15 18.85 L-15.85 18.65 -17.1 18.25 -17.3 18.15 -17.7 18.05 -17.75 18.05 -17.85 17.95 -18.3 17.75 -19.1 17.35 -19.6 17.05 Q-24.9 11.1 -25.2 3.2 L-25.2 3.1 -25.2 1.85 -25.2 1.85" fill="none" stroke="#000000" stroke-linecap="round" stroke-linejoin="round" stroke-opacity="0.0" stroke-width="1.0">
      <animate attributeName="stroke" dur="2s" repeatCount="indefinite" values="#000000;#000001"/>
      <animate attributeName="stroke-width" dur="2s" repeatCount="indefinite" values="0.0;0.0"/>
      <animate attributeName="fill-opacity" dur="2s" repeatCount="indefinite" values="0.0;0.0"/>
      <animate attributeName="d" dur="2s" repeatCount="indefinite" values="M-25.2 1.85 Q-25.2 -11.25 -18.3 -20.6 L-18.2 -20.6 -17.65 -21.4 -17.55 -21.5 Q-15.65 -23.95 -11.2 -27.25 L-9.95 -28.05 Q-8.1 -29.4 -6.95 -31.25 L-6.6 -31.75 -6.6 -31.75 -6.25 -32.65 -5.95 -33.45 -5.95 -33.45 Q-4.25 -38.45 -4.7 -43.6 L-4.8 -44.7 -4.55 -45.15 2.45 -45.15 3.05 -45.15 4.05 -45.0 4.05 -44.6 4.25 -44.95 Q3.05 -41.35 4.6 -36.3 L4.6 -36.3 4.8 -35.6 6.2 -32.15 6.4 -31.75 6.4 -31.75 6.9 -31.05 8.95 -28.5 13.05 -25.9 15.65 -23.7 15.75 -23.55 15.85 -23.45 16.15 -23.15 18.2 -20.6 18.25 -20.5 18.3 -20.45 Q24.35 -12.25 25.05 -1.2 L25.1 0.2 25.15 1.85 25.1 3.2 Q24.85 9.9 21.0 15.2 L20.3 16.15 19.7 16.85 19.6 16.95 19.5 17.05 18.2 17.75 17.75 17.95 17.6 18.05 Q10.8 20.4 1.35 20.6 L-0.05 20.6 Q-8.65 20.6 -15.15 18.85 L-15.85 18.65 -17.1 18.25 -17.3 18.15 -17.7 18.05 -17.75 18.05 -17.85 17.95 -18.3 17.75 -19.1 17.35 -19.6 17.05 Q-24.9 11.1 -25.2 3.2 L-25.2 3.1 -25.2 1.85 -25.2 1.85;M-25.2 1.85 Q-25.2 -10.7 -18.9 -19.8 L-18.8 -19.9 -18.3 -20.6 -18.2 -20.6 Q-16.65 -23.05 -12.35 -26.4 L-11.2 -27.25 Q-9.3 -28.35 -8.0 -29.85 L-7.5 -30.45 -7.5 -30.45 -6.95 -31.25 -6.6 -31.75 -6.6 -31.75 Q-4.55 -36.6 -4.6 -41.65 L-3.6 -41.65 -3.0 -41.65 3.7 -41.65 3.7 -41.05 3.75 -40.15 3.8 -39.75 3.9 -39.3 Q4.45 -35.9 6.4 -31.75 L6.4 -31.75 6.9 -31.05 8.95 -28.5 9.6 -28.15 9.6 -28.15 10.1 -27.85 12.8 -26.1 16.15 -23.15 18.2 -20.6 18.25 -20.5 18.3 -20.45 18.6 -20.05 20.35 -17.35 20.45 -17.25 20.55 -17.15 Q25.15 -8.95 25.15 1.85 L25.1 3.2 24.95 4.8 24.8 6.05 Q23.8 12.2 19.5 17.05 L18.2 17.75 17.75 17.95 17.6 18.05 17.4 18.15 16.35 18.5 15.85 18.65 15.65 18.75 Q8.9 20.6 -0.05 20.6 L-1.35 20.6 Q-9.6 20.45 -15.85 18.65 L-16.45 18.45 -17.7 18.05 -17.85 17.95 -18.2 17.85 -18.3 17.75 -18.4 17.75 -18.85 17.5 -19.6 17.05 -19.9 16.65 Q-24.85 10.95 -25.2 3.4 L-25.2 3.2 -25.2 2.05 -25.2 1.85"/>
    </path>
  </g>
</svg>
