<?xml version="1.0" encoding="UTF-8" standalone="no"?>
<svg xmlns:xlink="http://www.w3.org/1999/xlink" height="68.85px" width="50.35px" xmlns="http://www.w3.org/2000/svg">
  <g transform="matrix(1, 0, 0, 1, 25.2, 48.25)">
    <path d="M-25.2 1.85 L-25.2 3.2 Q-24.9 11.1 -19.6 17.05 L-18.3 17.75 -17.85 17.95 -17.7 18.05 -15.85 18.65 Q-9.1 20.6 -0.05 20.6 10.3 20.6 17.6 18.05 L17.75 17.95 18.2 17.75 19.5 17.05 Q24.8 11.1 25.1 3.2 L25.15 1.85 Q25.15 -11.15 18.3 -20.45 L18.25 -20.5 18.2 -20.6 16.15 -23.15 Q13.15 -26.3 8.95 -28.5 L6.9 -31.05 6.0 -32.25 Q5.8 -32.55 4.5 -38.5 3.25 -44.2 4.35 -48.25 L-4.85 -48.25 Q-4.2 -45.85 -4.75 -39.9 -5.3 -33.95 -6.1 -32.75 L-6.1 -32.75 -6.35 -32.25 -6.95 -31.25 Q-7.85 -29.8 -9.2 -28.65 L-11.2 -27.25 Q-16.45 -23.35 -18.2 -20.6 L-18.3 -20.6 Q-25.2 -11.25 -25.2 1.85" fill="#66cccc" fill-opacity="0.49803922" fill-rule="evenodd" stroke="none">
      <animate attributeName="fill" dur="2s" repeatCount="indefinite" values="#66cccc;#66cccd"/>
      <animate attributeName="fill-opacity" dur="2s" repeatCount="indefinite" values="0.49803922;0.49803922"/>
      <animate attributeName="d" dur="2s" repeatCount="indefinite" values="M-25.2 1.85 L-25.2 3.2 Q-24.9 11.1 -19.6 17.05 L-18.3 17.75 -17.85 17.95 -17.7 18.05 -15.85 18.65 Q-9.1 20.6 -0.05 20.6 10.3 20.6 17.6 18.05 L17.75 17.95 18.2 17.75 19.5 17.05 Q24.8 11.1 25.1 3.2 L25.15 1.85 Q25.15 -11.15 18.3 -20.45 L18.25 -20.5 18.2 -20.6 16.15 -23.15 Q13.15 -26.3 8.95 -28.5 L6.9 -31.05 6.0 -32.25 Q5.8 -32.55 4.5 -38.5 3.25 -44.2 4.35 -48.25 L-4.85 -48.25 Q-4.2 -45.85 -4.75 -39.9 -5.3 -33.95 -6.1 -32.75 L-6.1 -32.75 -6.35 -32.25 -6.95 -31.25 Q-7.85 -29.8 -9.2 -28.65 L-11.2 -27.25 Q-16.45 -23.35 -18.2 -20.6 L-18.3 -20.6 Q-25.2 -11.25 -25.2 1.85;M-25.2 1.85 L-25.2 3.2 Q-24.9 11.1 -19.6 17.05 L-18.3 17.75 -17.85 17.95 -17.7 18.05 -15.85 18.65 Q-9.1 20.6 -0.05 20.6 10.3 20.6 17.6 18.05 L17.75 17.95 18.2 17.75 19.5 17.05 Q24.8 11.1 25.1 3.2 L25.15 1.85 Q25.15 -11.15 18.3 -20.45 L18.25 -20.5 18.2 -20.6 16.15 -23.15 Q13.15 -26.3 8.95 -28.5 L6.9 -31.05 6.0 -32.25 Q5.8 -32.55 4.5 -38.5 3.75 -41.9 3.85 -44.75 L-4.5 -44.75 Q-4.65 -42.3 -4.75 -39.9 -5.3 -33.95 -6.1 -32.75 L-6.1 -32.75 -6.35 -32.25 -6.95 -31.25 Q-7.85 -29.8 -9.2 -28.65 L-11.2 -27.25 Q-16.45 -23.35 -18.2 -20.6 L-18.3 -20.6 Q-25.2 -11.25 -25.2 1.85"/>
    </path>
    <path d="M-25.2 1.85 Q-25.2 -11.25 -18.3 -20.6 L-18.2 -20.6 Q-16.45 -23.35 -11.2 -27.25 L-9.2 -28.65 Q-7.85 -29.8 -6.95 -31.25 L-6.35 -32.25 -6.1 -32.75 -6.1 -32.75 Q-5.3 -33.95 -4.75 -39.9 -4.2 -45.85 -4.85 -48.25 L4.35 -48.25 Q3.25 -44.2 4.5 -38.5 5.8 -32.55 6.0 -32.25 L6.9 -31.05 8.95 -28.5 Q13.15 -26.3 16.15 -23.15 L18.2 -20.6 18.25 -20.5 18.3 -20.45 Q25.15 -11.15 25.15 1.85 L25.1 3.2 Q24.8 11.1 19.5 17.05 L18.2 17.75 17.75 17.95 17.6 18.05 Q10.3 20.6 -0.05 20.6 -9.1 20.6 -15.85 18.65 L-17.7 18.05 -17.85 17.95 -18.3 17.75 -19.6 17.05 Q-24.9 11.1 -25.2 3.2 L-25.2 1.85" fill="none" stroke="#000000" stroke-linecap="round" stroke-linejoin="round" stroke-opacity="0.0" stroke-width="1.0">
      <animate attributeName="stroke" dur="2s" repeatCount="indefinite" values="#000000;#000001"/>
      <animate attributeName="stroke-width" dur="2s" repeatCount="indefinite" values="0.0;0.0"/>
      <animate attributeName="fill-opacity" dur="2s" repeatCount="indefinite" values="0.0;0.0"/>
      <animate attributeName="d" dur="2s" repeatCount="indefinite" values="M-25.2 1.85 Q-25.2 -11.25 -18.3 -20.6 L-18.2 -20.6 Q-16.45 -23.35 -11.2 -27.25 L-9.2 -28.65 Q-7.85 -29.8 -6.95 -31.25 L-6.35 -32.25 -6.1 -32.75 -6.1 -32.75 Q-5.3 -33.95 -4.75 -39.9 -4.2 -45.85 -4.85 -48.25 L4.35 -48.25 Q3.25 -44.2 4.5 -38.5 5.8 -32.55 6.0 -32.25 L6.9 -31.05 8.95 -28.5 Q13.15 -26.3 16.15 -23.15 L18.2 -20.6 18.25 -20.5 18.3 -20.45 Q25.15 -11.15 25.15 1.85 L25.1 3.2 Q24.8 11.1 19.5 17.05 L18.2 17.75 17.75 17.95 17.6 18.05 Q10.3 20.6 -0.05 20.6 -9.1 20.6 -15.85 18.65 L-17.7 18.05 -17.85 17.95 -18.3 17.75 -19.6 17.05 Q-24.9 11.1 -25.2 3.2 L-25.2 1.85;M-25.2 1.85 Q-25.2 -11.25 -18.3 -20.6 L-18.2 -20.6 Q-16.45 -23.35 -11.2 -27.25 L-9.2 -28.65 Q-7.85 -29.8 -6.95 -31.25 L-6.35 -32.25 -6.1 -32.75 -6.1 -32.75 Q-5.3 -33.95 -4.75 -39.9 -4.65 -42.3 -4.5 -44.75 L3.85 -44.75 Q3.75 -41.9 4.5 -38.5 5.8 -32.55 6.0 -32.25 L6.9 -31.05 8.95 -28.5 Q13.15 -26.3 16.15 -23.15 L18.2 -20.6 18.25 -20.5 18.3 -20.45 Q25.15 -11.15 25.15 1.85 L25.1 3.2 Q24.8 11.1 19.5 17.05 L18.2 17.75 17.75 17.95 17.6 18.05 Q10.3 20.6 -0.05 20.6 -9.1 20.6 -15.85 18.65 L-17.7 18.05 -17.85 17.95 -18.3 17.75 -19.6 17.05 Q-24.9 11.1 -25.2 3.2 L-25.2 1.85"/>
    </path>
  </g>
</svg>
