<?xml version="1.0" encoding="UTF-8" standalone="no"?>
<svg xmlns:xlink="http://www.w3.org/1999/xlink" height="54.1px" width="50.35px" xmlns="http://www.w3.org/2000/svg">
  <g transform="matrix(1, 0, 0, 1, 25.2, 33.5)">
    <path d="M-25.2 1.85 L-25.2 1.95 -25.2 3.2 -25.2 3.3 Q-24.85 11.15 -19.6 17.05 L-18.5 17.65 -18.3 17.75 -17.85 17.95 -17.7 18.05 -17.1 18.25 -16.6 18.45 -16.45 18.45 -15.85 18.65 -14.45 19.05 Q-8.15 20.6 -0.05 20.6 L2.45 20.55 Q11.2 20.3 17.6 18.05 L17.75 17.95 18.2 17.75 19.5 17.05 20.65 15.65 20.75 15.5 21.15 15.0 21.9 13.9 Q24.9 9.1 25.1 3.2 L25.15 1.85 25.0 -1.75 24.9 -3.2 Q23.8 -13.0 18.3 -20.45 L18.25 -20.5 18.2 -20.6 16.15 -23.15 14.05 -25.1 13.95 -25.2 13.85 -25.3 13.75 -25.4 Q11.6 -27.1 8.95 -28.5 L6.9 -31.05 Q5.2 -33.25 5.3 -33.5 L-5.95 -33.35 Q-6.15 -32.45 -6.95 -31.25 -8.5 -28.8 -11.2 -27.25 -15.25 -24.25 -17.15 -21.95 L-17.15 -21.95 -17.25 -21.85 -18.2 -20.6 -18.3 -20.6 Q-25.2 -11.25 -25.2 1.85" fill="#ffff66" fill-opacity="0.6431373" fill-rule="evenodd" stroke="none">
      <animate attributeName="fill" dur="2s" repeatCount="indefinite" values="#ffff66;#ffff67"/>
      <animate attributeName="fill-opacity" dur="2s" repeatCount="indefinite" values="0.6431373;0.6431373"/>
      <animate attributeName="d" dur="2s" repeatCount="indefinite" values="M-25.2 1.85 L-25.2 1.95 -25.2 3.2 -25.2 3.3 Q-24.85 11.15 -19.6 17.05 L-18.5 17.65 -18.3 17.75 -17.85 17.95 -17.7 18.05 -17.1 18.25 -16.6 18.45 -16.45 18.45 -15.85 18.65 -14.45 19.05 Q-8.15 20.6 -0.05 20.6 L2.45 20.55 Q11.2 20.3 17.6 18.05 L17.75 17.95 18.2 17.75 19.5 17.05 20.65 15.65 20.75 15.5 21.15 15.0 21.9 13.9 Q24.9 9.1 25.1 3.2 L25.15 1.85 25.0 -1.75 24.9 -3.2 Q23.8 -13.0 18.3 -20.45 L18.25 -20.5 18.2 -20.6 16.15 -23.15 14.05 -25.1 13.95 -25.2 13.85 -25.3 13.75 -25.4 Q11.6 -27.1 8.95 -28.5 L6.9 -31.05 Q5.2 -33.25 5.3 -33.5 L-5.95 -33.35 Q-6.15 -32.45 -6.95 -31.25 -8.5 -28.8 -11.2 -27.25 -15.25 -24.25 -17.15 -21.95 L-17.15 -21.95 -17.25 -21.85 -18.2 -20.6 -18.3 -20.6 Q-25.2 -11.25 -25.2 1.85;M-25.2 1.85 L-25.2 1.85 -25.2 3.1 -25.2 3.2 Q-24.9 10.6 -20.25 16.25 L-19.6 17.05 -19.3 17.25 -18.9 17.45 -18.75 17.55 -18.3 17.75 -17.85 17.95 -17.7 18.05 -17.1 18.25 -15.85 18.65 Q-10.0 20.35 -2.4 20.55 L-0.05 20.6 Q8.05 20.6 14.3 19.05 L14.5 18.95 15.0 18.85 16.05 18.55 17.6 18.05 17.75 17.95 18.2 17.75 19.5 17.05 Q23.2 12.9 24.5 7.75 L24.75 6.55 25.1 3.2 25.15 1.85 Q25.15 -7.75 21.35 -15.2 L21.35 -15.3 21.35 -15.4 19.85 -18.15 18.3 -20.45 18.25 -20.5 18.2 -20.6 18.2 -20.65 Q15.5 -20.65 12.8 -20.65 L9.7 -20.65 Q8.35 -20.65 7.0 -20.65 L-3.1 -20.65 Q-4.25 -20.65 -5.4 -20.65 -8.05 -20.65 -10.7 -20.65 -14.45 -20.65 -18.15 -20.65 L-18.2 -20.6 -18.3 -20.6 -19.05 -19.5 -19.15 -19.4 Q-25.2 -10.4 -25.2 1.85"/>
    </path>
    <path d="M-25.2 1.85 Q-25.2 -11.25 -18.3 -20.6 L-18.2 -20.6 -17.25 -21.85 -17.15 -21.95 -17.15 -21.95 Q-15.25 -24.25 -11.2 -27.25 -8.5 -28.8 -6.95 -31.25 -6.15 -32.45 -5.95 -33.35 L5.3 -33.5 Q5.2 -33.25 6.9 -31.05 L8.95 -28.5 Q11.6 -27.1 13.75 -25.4 L13.85 -25.3 13.95 -25.2 14.05 -25.1 16.15 -23.15 18.2 -20.6 18.25 -20.5 18.3 -20.45 Q23.8 -13.0 24.9 -3.2 L25.0 -1.75 25.15 1.85 25.1 3.2 Q24.9 9.1 21.9 13.9 L21.15 15.0 20.75 15.5 20.65 15.65 19.5 17.05 18.2 17.75 17.75 17.95 17.6 18.05 Q11.2 20.3 2.45 20.55 L-0.05 20.6 Q-8.15 20.6 -14.45 19.05 L-15.85 18.65 -16.45 18.45 -16.6 18.45 -17.1 18.25 -17.7 18.05 -17.85 17.95 -18.3 17.75 -18.5 17.65 -19.6 17.05 Q-24.85 11.15 -25.2 3.3 L-25.2 3.2 -25.2 1.95 -25.2 1.85" fill="none" stroke="#000000" stroke-linecap="round" stroke-linejoin="round" stroke-opacity="0.0" stroke-width="1.0">
      <animate attributeName="stroke" dur="2s" repeatCount="indefinite" values="#000000;#000001"/>
      <animate attributeName="stroke-width" dur="2s" repeatCount="indefinite" values="0.0;0.0"/>
      <animate attributeName="fill-opacity" dur="2s" repeatCount="indefinite" values="0.0;0.0"/>
      <animate attributeName="d" dur="2s" repeatCount="indefinite" values="M-25.2 1.85 Q-25.2 -11.25 -18.3 -20.6 L-18.2 -20.6 -17.25 -21.85 -17.15 -21.95 -17.15 -21.95 Q-15.25 -24.25 -11.2 -27.25 -8.5 -28.8 -6.95 -31.25 -6.15 -32.45 -5.95 -33.35 L5.3 -33.5 Q5.2 -33.25 6.9 -31.05 L8.95 -28.5 Q11.6 -27.1 13.75 -25.4 L13.85 -25.3 13.95 -25.2 14.05 -25.1 16.15 -23.15 18.2 -20.6 18.25 -20.5 18.3 -20.45 Q23.8 -13.0 24.9 -3.2 L25.0 -1.75 25.15 1.85 25.1 3.2 Q24.9 9.1 21.9 13.9 L21.15 15.0 20.75 15.5 20.65 15.65 19.5 17.05 18.2 17.75 17.75 17.95 17.6 18.05 Q11.2 20.3 2.45 20.55 L-0.05 20.6 Q-8.15 20.6 -14.45 19.05 L-15.85 18.65 -16.45 18.45 -16.6 18.45 -17.1 18.25 -17.7 18.05 -17.85 17.95 -18.3 17.75 -18.5 17.65 -19.6 17.05 Q-24.85 11.15 -25.2 3.3 L-25.2 3.2 -25.2 1.95 -25.2 1.85;M-25.2 1.85 Q-25.2 -10.4 -19.15 -19.4 L-19.05 -19.5 -18.3 -20.6 -18.2 -20.6 -18.15 -20.65 Q-14.45 -20.65 -10.7 -20.65 -8.05 -20.65 -5.4 -20.65 -4.25 -20.65 -3.1 -20.65 L7.0 -20.65 Q8.35 -20.65 9.7 -20.65 L12.8 -20.65 Q15.5 -20.65 18.2 -20.65 L18.2 -20.6 18.25 -20.5 18.3 -20.45 19.85 -18.15 21.35 -15.4 21.35 -15.3 21.35 -15.2 Q25.15 -7.75 25.15 1.85 L25.1 3.2 24.75 6.55 24.5 7.75 Q23.2 12.9 19.5 17.05 L18.2 17.75 17.75 17.95 17.6 18.05 16.05 18.55 15.0 18.85 14.5 18.95 14.3 19.05 Q8.05 20.6 -0.05 20.6 L-2.4 20.55 Q-10.0 20.35 -15.85 18.65 L-17.1 18.25 -17.7 18.05 -17.85 17.95 -18.3 17.75 -18.75 17.55 -18.9 17.45 -19.3 17.25 -19.6 17.05 -20.25 16.25 Q-24.9 10.6 -25.2 3.2 L-25.2 3.1 -25.2 1.85 -25.2 1.85"/>
    </path>
  </g>
</svg>
