<?xml version="1.0" encoding="UTF-8" standalone="no"?>
<svg xmlns:xlink="http://www.w3.org/1999/xlink" height="25.75px" width="3.85px" xmlns="http://www.w3.org/2000/svg">
  <g transform="matrix(1, 0, 0, 1, -521.55, -233.9)">
    <path d="M521.6 239.6 Q521.6 242.9 522.15 245.25 522.75 247.6 523.6 247.6 524.45 247.6 525.0 245.25 525.6 242.9 525.1 239.5 524.55 236.1 522.15 233.95 521.6 236.3 521.6 239.6" fill="#d7dedf" fill-opacity="0.77254903" fill-rule="evenodd" stroke="none">
      <animate attributeName="fill" dur="2s" repeatCount="indefinite" values="#d7dedf;#d7dee0"/>
      <animate attributeName="fill-opacity" dur="2s" repeatCount="indefinite" values="0.77254903;0.77254903"/>
      <animate attributeName="d" dur="2s" repeatCount="indefinite" values="M521.6 239.6 Q521.6 242.9 522.15 245.25 522.75 247.6 523.6 247.6 524.45 247.6 525.0 245.25 525.6 242.9 525.1 239.5 524.55 236.1 522.15 233.95 521.6 236.3 521.6 239.6;M521.6 251.6 Q521.6 254.9 522.15 257.25 522.75 259.6 523.6 259.6 524.45 259.6 525.0 257.25 525.6 254.9 525.1 251.5 524.55 248.1 522.15 245.95 521.6 248.3 521.6 251.6"/>
    </path>
    <path d="M521.6 239.6 Q521.6 236.3 522.15 233.95 524.55 236.1 525.1 239.5 525.6 242.9 525.0 245.25 524.45 247.6 523.6 247.6 522.75 247.6 522.15 245.25 521.6 242.9 521.6 239.6 521.6 236.3 522.15 233.95 524.55 236.1 525.1 239.5 525.6 242.9 525.0 245.25 524.45 247.6 523.6 247.6 522.75 247.6 522.15 245.25 521.6 242.9 521.6 239.6" fill="none" stroke="#999999" stroke-linecap="round" stroke-linejoin="round" stroke-width="0.1">
      <animate attributeName="stroke" dur="2s" repeatCount="indefinite" values="#999999;#99999a"/>
      <animate attributeName="stroke-width" dur="2s" repeatCount="indefinite" values="0.1;0.1"/>
      <animate attributeName="fill-opacity" dur="2s" repeatCount="indefinite" values="1.0;1.0"/>
      <animate attributeName="d" dur="2s" repeatCount="indefinite" values="M521.6 239.6 Q521.6 236.3 522.15 233.95 524.55 236.1 525.1 239.5 525.6 242.9 525.0 245.25 524.45 247.6 523.6 247.6 522.75 247.6 522.15 245.25 521.6 242.9 521.6 239.6 521.6 236.3 522.15 233.95 524.55 236.1 525.1 239.5 525.6 242.9 525.0 245.25 524.45 247.6 523.6 247.6 522.75 247.6 522.15 245.25 521.6 242.9 521.6 239.6;M521.6 251.6 Q521.6 248.3 522.15 245.95 524.55 248.1 525.1 251.5 525.6 254.9 525.0 257.25 524.45 259.6 523.6 259.6 522.75 259.6 522.15 257.25 521.6 254.9 521.6 251.6 521.6 248.3 522.15 245.95 524.55 248.1 525.1 251.5 525.6 254.9 525.0 257.25 524.45 259.6 523.6 259.6 522.75 259.6 522.15 257.25 521.6 254.9 521.6 251.6"/>
    </path>
  </g>
</svg>
