<?xml version="1.0" encoding="UTF-8" standalone="no"?>
<svg xmlns:xlink="http://www.w3.org/1999/xlink" height="69.45px" width="50.35px" xmlns="http://www.w3.org/2000/svg">
  <g transform="matrix(1, 0, 0, 1, 25.2, 48.85)">
    <path d="M-25.2 1.85 L-25.2 2.15 -25.2 3.2 -25.2 3.6 Q-24.75 11.25 -19.6 17.05 L-18.3 17.75 -17.85 17.95 -17.75 18.05 -17.7 18.05 -16.25 18.55 -15.85 18.65 -15.75 18.65 -15.55 18.75 -13.5 19.25 Q-7.55 20.6 -0.05 20.6 L3.95 20.5 Q11.75 20.1 17.6 18.05 L17.75 17.95 18.2 17.75 19.5 17.05 21.9 13.9 22.0 13.7 22.3 13.2 22.9 12.05 Q24.9 8.0 25.1 3.2 L25.15 1.85 Q25.15 -1.35 24.75 -4.3 L24.5 -5.8 Q23.05 -14.0 18.3 -20.45 L18.25 -20.5 18.2 -20.6 16.15 -23.15 Q14.0 -25.4 11.2 -27.1 L11.1 -27.2 11.0 -27.3 8.95 -28.5 8.15 -29.5 6.9 -31.05 5.8 -32.6 5.8 -32.6 Q4.6 -34.45 4.2 -38.15 4.0 -39.75 3.95 -41.7 L3.95 -43.7 3.95 -43.7 Q4.05 -46.3 4.15 -48.85 L0.95 -48.85 -5.05 -48.85 -4.95 -48.7 -4.75 -44.8 Q-4.6 -40.1 -5.2 -36.6 L-5.55 -34.95 -5.75 -34.05 -6.2 -32.6 -6.95 -31.25 -7.4 -30.6 -8.5 -29.3 -11.2 -27.25 Q-14.75 -24.6 -16.65 -22.5 L-16.75 -22.4 -18.2 -20.6 -18.3 -20.6 Q-25.2 -11.25 -25.2 1.85" fill="#ffff00" fill-opacity="0.6" fill-rule="evenodd" stroke="none">
      <animate attributeName="fill" dur="2s" repeatCount="indefinite" values="#ffff00;#ffff01"/>
      <animate attributeName="fill-opacity" dur="2s" repeatCount="indefinite" values="0.6;0.6"/>
      <animate attributeName="d" dur="2s" repeatCount="indefinite" values="M-25.2 1.85 L-25.2 2.15 -25.2 3.2 -25.2 3.6 Q-24.75 11.25 -19.6 17.05 L-18.3 17.75 -17.85 17.95 -17.75 18.05 -17.7 18.05 -16.25 18.55 -15.85 18.65 -15.75 18.65 -15.55 18.75 -13.5 19.25 Q-7.55 20.6 -0.05 20.6 L3.95 20.5 Q11.75 20.1 17.6 18.05 L17.75 17.95 18.2 17.75 19.5 17.05 21.9 13.9 22.0 13.7 22.3 13.2 22.9 12.05 Q24.9 8.0 25.1 3.2 L25.15 1.85 Q25.15 -1.35 24.75 -4.3 L24.5 -5.8 Q23.05 -14.0 18.3 -20.45 L18.25 -20.5 18.2 -20.6 16.15 -23.15 Q14.0 -25.4 11.2 -27.1 L11.1 -27.2 11.0 -27.3 8.95 -28.5 8.15 -29.5 6.9 -31.05 5.8 -32.6 5.8 -32.6 Q4.6 -34.45 4.2 -38.15 4.0 -39.75 3.95 -41.7 L3.95 -43.7 3.95 -43.7 Q4.05 -46.3 4.15 -48.85 L0.95 -48.85 -5.05 -48.85 -4.95 -48.7 -4.75 -44.8 Q-4.6 -40.1 -5.2 -36.6 L-5.55 -34.95 -5.75 -34.05 -6.2 -32.6 -6.95 -31.25 -7.4 -30.6 -8.5 -29.3 -11.2 -27.25 Q-14.75 -24.6 -16.65 -22.5 L-16.75 -22.4 -18.2 -20.6 -18.3 -20.6 Q-25.2 -11.25 -25.2 1.85;M-25.2 1.85 L-25.2 1.85 -25.2 2.8 -25.2 3.2 Q-24.9 10.25 -20.75 15.75 L-20.0 16.65 -19.7 16.95 -19.6 17.05 -19.5 17.15 -18.3 17.75 -17.9 17.95 -17.85 17.95 -17.7 18.05 -15.85 18.65 Q-10.5 20.2 -3.65 20.5 L-0.05 20.6 Q6.9 20.6 12.5 19.4 L12.7 19.4 13.25 19.3 14.35 19.05 17.6 18.05 17.75 17.95 18.2 17.75 19.5 17.05 Q22.45 13.75 23.85 9.9 L24.2 8.8 Q25.0 6.15 25.1 3.2 L25.15 1.85 Q25.15 -6.05 22.55 -12.55 L22.55 -12.65 22.55 -12.75 21.35 -15.5 Q19.8 -18.0 18.3 -20.45 L18.25 -20.5 18.2 -20.6 16.95 -22.3 16.15 -23.15 14.9 -24.4 13.6 -25.5 13.6 -25.5 Q11.5 -27.15 8.95 -28.5 7.9 -29.8 6.9 -31.05 L5.8 -32.6 5.8 -32.6 Q4.8 -34.15 4.35 -37.0 L4.05 -39.85 -1.4 -39.85 -1.6 -39.85 -4.8 -39.85 Q-5.1 -35.5 -6.2 -32.6 L-6.95 -31.25 -7.4 -30.6 -8.35 -29.45 -9.25 -28.6 -9.85 -28.1 -11.2 -27.25 -13.6 -25.35 Q-16.9 -22.65 -18.2 -20.6 L-18.3 -20.6 -19.45 -18.9 -19.55 -18.8 Q-25.2 -10.0 -25.2 1.85"/>
    </path>
    <path d="M-25.2 1.85 Q-25.2 -11.25 -18.3 -20.6 L-18.2 -20.6 -16.75 -22.4 -16.65 -22.5 Q-14.75 -24.6 -11.2 -27.25 L-8.5 -29.3 -7.4 -30.6 -6.95 -31.25 -6.2 -32.6 -5.75 -34.05 -5.55 -34.95 -5.2 -36.6 Q-4.6 -40.1 -4.75 -44.8 L-4.95 -48.7 -5.05 -48.85 0.95 -48.85 4.15 -48.85 Q4.05 -46.3 3.95 -43.7 L3.95 -43.7 3.95 -41.7 Q4.0 -39.75 4.2 -38.15 4.6 -34.45 5.8 -32.6 L5.8 -32.6 6.9 -31.05 8.15 -29.5 8.95 -28.5 11.0 -27.3 11.1 -27.2 11.2 -27.1 Q14.0 -25.4 16.15 -23.15 L18.2 -20.6 18.25 -20.5 18.3 -20.45 Q23.05 -14.0 24.5 -5.8 L24.75 -4.3 Q25.15 -1.35 25.15 1.85 L25.1 3.2 Q24.9 8.0 22.9 12.05 L22.3 13.2 22.0 13.7 21.9 13.9 19.5 17.05 18.2 17.75 17.75 17.95 17.6 18.05 Q11.75 20.1 3.95 20.5 L-0.05 20.6 Q-7.55 20.6 -13.5 19.25 L-15.55 18.75 -15.75 18.65 -15.85 18.65 -16.25 18.55 -17.7 18.05 -17.75 18.05 -17.85 17.95 -18.3 17.75 -19.6 17.05 Q-24.75 11.25 -25.2 3.6 L-25.2 3.2 -25.2 2.15 -25.2 1.85" fill="none" stroke="#000000" stroke-linecap="round" stroke-linejoin="round" stroke-opacity="0.0" stroke-width="1.0">
      <animate attributeName="stroke" dur="2s" repeatCount="indefinite" values="#000000;#000001"/>
      <animate attributeName="stroke-width" dur="2s" repeatCount="indefinite" values="0.0;0.0"/>
      <animate attributeName="fill-opacity" dur="2s" repeatCount="indefinite" values="0.0;0.0"/>
      <animate attributeName="d" dur="2s" repeatCount="indefinite" values="M-25.2 1.85 Q-25.2 -11.25 -18.3 -20.6 L-18.2 -20.6 -16.75 -22.4 -16.65 -22.5 Q-14.75 -24.6 -11.2 -27.25 L-8.5 -29.3 -7.4 -30.6 -6.95 -31.25 -6.2 -32.6 -5.75 -34.05 -5.55 -34.95 -5.2 -36.6 Q-4.6 -40.1 -4.75 -44.8 L-4.95 -48.7 -5.05 -48.85 0.95 -48.85 4.15 -48.85 Q4.05 -46.3 3.95 -43.7 L3.95 -43.7 3.95 -41.7 Q4.0 -39.75 4.2 -38.15 4.6 -34.45 5.8 -32.6 L5.8 -32.6 6.9 -31.05 8.15 -29.5 8.95 -28.5 11.0 -27.3 11.1 -27.2 11.2 -27.1 Q14.0 -25.4 16.15 -23.15 L18.2 -20.6 18.25 -20.5 18.3 -20.45 Q23.05 -14.0 24.5 -5.8 L24.75 -4.3 Q25.15 -1.35 25.15 1.85 L25.1 3.2 Q24.9 8.0 22.9 12.05 L22.3 13.2 22.0 13.7 21.9 13.9 19.5 17.05 18.2 17.75 17.75 17.95 17.6 18.05 Q11.75 20.1 3.95 20.5 L-0.05 20.6 Q-7.55 20.6 -13.5 19.25 L-15.55 18.75 -15.75 18.65 -15.85 18.65 -16.25 18.55 -17.7 18.05 -17.75 18.05 -17.85 17.95 -18.3 17.75 -19.6 17.05 Q-24.75 11.25 -25.2 3.6 L-25.2 3.2 -25.2 2.15 -25.2 1.85;M-25.2 1.85 Q-25.2 -10.0 -19.55 -18.8 L-19.45 -18.9 -18.3 -20.6 -18.2 -20.6 Q-16.9 -22.65 -13.6 -25.35 L-11.2 -27.25 -9.85 -28.1 -9.25 -28.6 -8.35 -29.45 -7.4 -30.6 -6.95 -31.25 -6.2 -32.6 Q-5.1 -35.5 -4.8 -39.85 L-1.6 -39.85 -1.4 -39.85 4.05 -39.85 4.35 -37.0 Q4.8 -34.15 5.8 -32.6 L5.8 -32.6 6.9 -31.05 Q7.9 -29.8 8.95 -28.5 11.5 -27.15 13.6 -25.5 L13.6 -25.5 14.9 -24.4 16.15 -23.15 16.95 -22.3 18.2 -20.6 18.25 -20.5 18.3 -20.45 Q19.8 -18.0 21.35 -15.5 L22.55 -12.75 22.55 -12.65 22.55 -12.55 Q25.15 -6.05 25.15 1.85 L25.1 3.2 Q25.0 6.15 24.2 8.8 L23.85 9.9 Q22.45 13.75 19.5 17.05 L18.2 17.75 17.75 17.95 17.6 18.05 14.35 19.05 13.25 19.3 12.7 19.4 12.5 19.4 Q6.9 20.6 -0.05 20.6 L-3.65 20.5 Q-10.5 20.2 -15.85 18.65 L-17.7 18.05 -17.85 17.95 -17.9 17.95 -18.3 17.75 -19.5 17.15 -19.6 17.05 -19.7 16.95 -20.0 16.65 -20.75 15.75 Q-24.9 10.25 -25.2 3.2 L-25.2 2.8 -25.2 1.85 -25.2 1.85"/>
    </path>
  </g>
</svg>
