<?xml version="1.0" encoding="UTF-8" standalone="no"?>
<svg xmlns:xlink="http://www.w3.org/1999/xlink" height="54.1px" width="50.35px" xmlns="http://www.w3.org/2000/svg">
  <g transform="matrix(1, 0, 0, 1, 25.2, 33.5)">
    <path d="M-25.2 1.85 L-25.2 2.1 -25.2 3.2 -25.2 3.5 Q-24.8 11.2 -19.6 17.05 L-18.75 17.55 -18.3 17.75 -17.85 17.95 -17.7 18.05 -17.5 18.15 -17.0 18.25 -16.8 18.35 -15.85 18.65 -14.9 18.95 Q-8.45 20.6 -0.05 20.6 L1.55 20.6 Q10.9 20.4 17.6 18.05 L17.75 17.95 18.2 17.75 19.5 17.05 19.7 16.95 19.8 16.75 20.3 16.15 21.0 15.2 Q24.85 9.9 25.1 3.2 L25.15 1.85 25.1 0.3 25.05 -1.1 Q24.35 -12.25 18.3 -20.45 L18.25 -20.5 18.2 -20.6 16.15 -23.15 16.15 -23.15 16.15 -23.15 16.15 -23.15 13.3 -25.7 Q11.9 -26.8 10.35 -27.7 L8.95 -28.5 6.9 -31.05 Q5.2 -33.25 5.3 -33.5 L-5.95 -33.35 Q-6.15 -32.45 -6.95 -31.25 -8.5 -28.8 -11.2 -27.25 L-12.55 -26.2 Q-16.05 -23.5 -17.6 -21.4 L-17.7 -21.3 -18.2 -20.6 -18.3 -20.6 Q-25.2 -11.25 -25.2 1.85" fill="#66cccc" fill-opacity="0.21568628" fill-rule="evenodd" stroke="none">
      <animate attributeName="fill" dur="2s" repeatCount="indefinite" values="#66cccc;#66cccd"/>
      <animate attributeName="fill-opacity" dur="2s" repeatCount="indefinite" values="0.21568628;0.2"/>
      <animate attributeName="d" dur="2s" repeatCount="indefinite" values="M-25.2 1.85 L-25.2 2.1 -25.2 3.2 -25.2 3.5 Q-24.8 11.2 -19.6 17.05 L-18.75 17.55 -18.3 17.75 -17.85 17.95 -17.7 18.05 -17.5 18.15 -17.0 18.25 -16.8 18.35 -15.85 18.65 -14.9 18.95 Q-8.45 20.6 -0.05 20.6 L1.55 20.6 Q10.9 20.4 17.6 18.05 L17.75 17.95 18.2 17.75 19.5 17.05 19.7 16.95 19.8 16.75 20.3 16.15 21.0 15.2 Q24.85 9.9 25.1 3.2 L25.15 1.85 25.1 0.3 25.05 -1.1 Q24.35 -12.25 18.3 -20.45 L18.25 -20.5 18.2 -20.6 16.15 -23.15 16.15 -23.15 16.15 -23.15 16.15 -23.15 13.3 -25.7 Q11.9 -26.8 10.35 -27.7 L8.95 -28.5 6.9 -31.05 Q5.2 -33.25 5.3 -33.5 L-5.95 -33.35 Q-6.15 -32.45 -6.95 -31.25 -8.5 -28.8 -11.2 -27.25 L-12.55 -26.2 Q-16.05 -23.5 -17.6 -21.4 L-17.7 -21.3 -18.2 -20.6 -18.3 -20.6 Q-25.2 -11.25 -25.2 1.85;M-25.2 1.85 L-25.2 1.85 -25.2 2.95 -25.2 3.2 Q-24.9 10.7 -20.1 16.45 L-19.6 17.05 -19.2 17.3 -18.7 17.55 -18.5 17.65 -18.3 17.75 -17.85 17.95 -17.7 18.05 -16.75 18.35 -15.85 18.65 Q-9.7 20.45 -1.55 20.6 L-0.05 20.6 Q8.9 20.6 15.6 18.8 L15.8 18.7 16.35 18.5 17.4 18.15 17.6 18.05 17.75 17.95 18.2 17.75 19.5 17.05 Q23.8 12.2 24.8 6.0 L24.95 4.75 25.1 3.2 25.15 1.85 Q25.15 -9.0 20.45 -17.25 L20.35 -17.35 20.25 -17.45 18.5 -20.15 18.3 -20.45 18.25 -20.5 18.2 -20.6 16.15 -23.15 Q14.95 -24.25 13.8 -25.35 L12.4 -25.35 9.2 -25.35 Q7.75 -25.35 6.3 -25.35 L-4.1 -25.35 Q-5.25 -25.35 -6.4 -25.35 -9.15 -25.35 -11.9 -25.35 L-13.6 -25.35 Q-16.9 -22.65 -18.2 -20.6 L-18.3 -20.6 -18.7 -20.0 -18.8 -19.9 Q-25.2 -10.75 -25.2 1.85"/>
    </path>
    <path d="M-25.2 1.85 Q-25.2 -11.25 -18.3 -20.6 L-18.2 -20.6 -17.7 -21.3 -17.6 -21.4 Q-16.05 -23.5 -12.55 -26.2 L-11.2 -27.25 Q-8.5 -28.8 -6.95 -31.25 -6.15 -32.45 -5.95 -33.35 L5.3 -33.5 Q5.2 -33.25 6.9 -31.05 L8.95 -28.5 10.35 -27.7 Q11.9 -26.8 13.3 -25.7 L16.15 -23.15 16.15 -23.15 16.15 -23.15 16.15 -23.15 18.2 -20.6 18.25 -20.5 18.3 -20.45 Q24.35 -12.25 25.05 -1.1 L25.1 0.3 25.15 1.85 25.1 3.2 Q24.85 9.9 21.0 15.2 L20.3 16.15 19.8 16.75 19.7 16.95 19.5 17.05 18.2 17.75 17.75 17.95 17.6 18.05 Q10.9 20.4 1.55 20.6 L-0.05 20.6 Q-8.45 20.6 -14.9 18.95 L-15.85 18.65 -16.8 18.35 -17.0 18.25 -17.5 18.15 -17.7 18.05 -17.85 17.95 -18.3 17.75 -18.75 17.55 -19.6 17.05 Q-24.8 11.2 -25.2 3.5 L-25.2 3.2 -25.2 2.1 -25.2 1.85" fill="none" stroke="#000000" stroke-linecap="round" stroke-linejoin="round" stroke-opacity="0.0" stroke-width="1.0">
      <animate attributeName="stroke" dur="2s" repeatCount="indefinite" values="#000000;#000001"/>
      <animate attributeName="stroke-width" dur="2s" repeatCount="indefinite" values="0.0;0.0"/>
      <animate attributeName="fill-opacity" dur="2s" repeatCount="indefinite" values="0.0;0.0"/>
      <animate attributeName="d" dur="2s" repeatCount="indefinite" values="M-25.2 1.85 Q-25.2 -11.25 -18.3 -20.6 L-18.2 -20.6 -17.7 -21.3 -17.6 -21.4 Q-16.05 -23.5 -12.55 -26.2 L-11.2 -27.25 Q-8.5 -28.8 -6.95 -31.25 -6.15 -32.45 -5.95 -33.35 L5.3 -33.5 Q5.2 -33.25 6.9 -31.05 L8.95 -28.5 10.35 -27.7 Q11.9 -26.8 13.3 -25.7 L16.15 -23.15 16.15 -23.15 16.15 -23.15 16.15 -23.15 18.2 -20.6 18.25 -20.5 18.3 -20.45 Q24.35 -12.25 25.05 -1.1 L25.1 0.3 25.15 1.85 25.1 3.2 Q24.85 9.9 21.0 15.2 L20.3 16.15 19.8 16.75 19.7 16.95 19.5 17.05 18.2 17.75 17.75 17.95 17.6 18.05 Q10.9 20.4 1.55 20.6 L-0.05 20.6 Q-8.45 20.6 -14.9 18.95 L-15.85 18.65 -16.8 18.35 -17.0 18.25 -17.5 18.15 -17.7 18.05 -17.85 17.95 -18.3 17.75 -18.75 17.55 -19.6 17.05 Q-24.8 11.2 -25.2 3.5 L-25.2 3.2 -25.2 2.1 -25.2 1.85;M-25.2 1.85 Q-25.2 -10.75 -18.8 -19.9 L-18.7 -20.0 -18.3 -20.6 -18.2 -20.6 Q-16.9 -22.65 -13.6 -25.35 L-11.9 -25.35 Q-9.15 -25.35 -6.4 -25.35 -5.25 -25.35 -4.1 -25.35 L6.3 -25.35 Q7.75 -25.35 9.2 -25.35 L12.4 -25.35 13.8 -25.35 Q14.95 -24.25 16.15 -23.15 L18.2 -20.6 18.25 -20.5 18.3 -20.45 18.5 -20.15 20.25 -17.45 20.35 -17.35 20.45 -17.25 Q25.15 -9.0 25.15 1.85 L25.1 3.2 24.95 4.75 24.8 6.0 Q23.8 12.2 19.5 17.05 L18.2 17.75 17.75 17.95 17.6 18.05 17.4 18.15 16.35 18.5 15.8 18.7 15.6 18.8 Q8.9 20.6 -0.05 20.6 L-1.55 20.6 Q-9.7 20.45 -15.85 18.65 L-16.75 18.35 -17.7 18.05 -17.85 17.95 -18.3 17.75 -18.5 17.65 -18.7 17.55 -19.2 17.3 -19.6 17.05 -20.1 16.45 Q-24.9 10.7 -25.2 3.2 L-25.2 2.95 -25.2 1.85 -25.2 1.85"/>
    </path>
  </g>
</svg>
