<?xml version="1.0" encoding="UTF-8" standalone="no"?>
<svg xmlns:xlink="http://www.w3.org/1999/xlink" height="50.8px" width="98.4px" xmlns="http://www.w3.org/2000/svg">
  <g transform="matrix(1, 0, 0, 1, -624.8, -240.1)">
    <path d="M625.15 279.35 L625.25 279.55 625.3 280.05 Q625.45 280.8 625.75 281.45 630.55 287.8 638.25 289.7 L639.5 290.0 Q652.25 292.6 662.75 287.75 L662.8 287.7 662.9 287.65 Q664.15 287.25 665.8 286.2 669.5 283.85 672.5 280.2 L675.4 278.7 Q677.9 277.45 678.1 277.6 679.15 272.05 680.2 266.55 679.25 265.85 678.35 265.15 676.25 263.15 675.25 260.2 672.5 254.25 670.15 252.0 L670.15 251.9 Q662.4 243.25 649.55 240.65 L648.25 240.4 Q640.45 239.1 633.55 243.1 L632.55 244.3 632.35 244.65 632.2 244.75 631.25 246.5 Q628.0 252.7 626.2 261.55 624.1 271.7 625.15 279.35" fill="#ffff00" fill-opacity="0.6431373" fill-rule="evenodd" stroke="none">
      <animate attributeName="fill" dur="2s" repeatCount="indefinite" values="#ffff00;#ffff01"/>
      <animate attributeName="fill-opacity" dur="2s" repeatCount="indefinite" values="0.6431373;0.6431373"/>
      <animate attributeName="d" dur="2s" repeatCount="indefinite" values="M625.15 279.35 L625.25 279.55 625.3 280.05 Q625.45 280.8 625.75 281.45 630.55 287.8 638.25 289.7 L639.5 290.0 Q652.25 292.6 662.75 287.75 L662.8 287.7 662.9 287.65 Q664.15 287.25 665.8 286.2 669.5 283.85 672.5 280.2 L675.4 278.7 Q677.9 277.45 678.1 277.6 679.15 272.05 680.2 266.55 679.25 265.85 678.35 265.15 676.25 263.15 675.25 260.2 672.5 254.25 670.15 252.0 L670.15 251.9 Q662.4 243.25 649.55 240.65 L648.25 240.4 Q640.45 239.1 633.55 243.1 L632.55 244.3 632.35 244.65 632.2 244.75 631.25 246.5 Q628.0 252.7 626.2 261.55 624.1 271.7 625.15 279.35;M625.15 279.35 L625.25 279.55 625.3 280.05 Q625.45 280.8 625.75 281.45 630.55 287.8 638.25 289.7 L639.5 290.0 Q652.25 292.6 662.75 287.75 L662.8 287.7 662.9 287.65 Q664.15 287.25 665.8 286.2 669.5 283.85 672.5 280.2 L675.4 278.7 Q677.9 277.45 678.1 277.6 745.35 285.95 712.35 276.2 679.35 266.45 677.8 264.8 676.25 263.15 675.25 260.2 672.5 254.25 670.15 252.0 L670.15 251.9 Q662.4 243.25 649.55 240.65 L648.25 240.4 Q640.45 239.1 633.55 243.1 L632.55 244.3 632.35 244.65 632.2 244.75 631.25 246.5 Q628.0 252.7 626.2 261.55 624.1 271.7 625.15 279.35"/>
    </path>
    <path d="M625.15 279.35 Q624.1 271.7 626.2 261.55 628.0 252.7 631.25 246.5 L632.2 244.75 632.35 244.65 632.55 244.3 633.55 243.1 Q640.45 239.1 648.25 240.4 L649.55 240.65 Q662.4 243.25 670.15 251.9 L670.15 252.0 Q672.5 254.25 675.25 260.2 676.25 263.15 678.35 265.15 679.25 265.85 680.2 266.55 679.15 272.05 678.1 277.6 677.9 277.45 675.4 278.7 L672.5 280.2 Q669.5 283.85 665.8 286.2 664.15 287.25 662.9 287.65 L662.8 287.7 662.75 287.75 Q652.25 292.6 639.5 290.0 L638.25 289.7 Q630.55 287.8 625.75 281.45 625.45 280.8 625.3 280.05 L625.25 279.55 625.15 279.35" fill="none" stroke="#000000" stroke-linecap="round" stroke-linejoin="round" stroke-opacity="0.0" stroke-width="1.0">
      <animate attributeName="stroke" dur="2s" repeatCount="indefinite" values="#000000;#000001"/>
      <animate attributeName="stroke-width" dur="2s" repeatCount="indefinite" values="0.0;0.0"/>
      <animate attributeName="fill-opacity" dur="2s" repeatCount="indefinite" values="0.0;0.0"/>
      <animate attributeName="d" dur="2s" repeatCount="indefinite" values="M625.15 279.35 Q624.1 271.7 626.2 261.55 628.0 252.7 631.25 246.5 L632.2 244.75 632.35 244.65 632.55 244.3 633.55 243.1 Q640.45 239.1 648.25 240.4 L649.55 240.65 Q662.4 243.25 670.15 251.9 L670.15 252.0 Q672.5 254.25 675.25 260.2 676.25 263.15 678.35 265.15 679.25 265.85 680.2 266.55 679.15 272.05 678.1 277.6 677.9 277.45 675.4 278.7 L672.5 280.2 Q669.5 283.85 665.8 286.2 664.15 287.25 662.9 287.65 L662.8 287.7 662.75 287.75 Q652.25 292.6 639.5 290.0 L638.25 289.7 Q630.55 287.8 625.75 281.45 625.45 280.8 625.3 280.05 L625.25 279.55 625.15 279.35;M625.15 279.35 Q624.1 271.7 626.2 261.55 628.0 252.7 631.25 246.5 L632.2 244.75 632.35 244.65 632.55 244.3 633.55 243.1 Q640.45 239.1 648.25 240.4 L649.55 240.65 Q662.4 243.25 670.15 251.9 L670.15 252.0 Q672.5 254.25 675.25 260.2 676.25 263.15 677.8 264.8 679.35 266.45 712.35 276.2 745.35 285.95 678.1 277.6 677.9 277.45 675.4 278.7 L672.5 280.2 Q669.5 283.85 665.8 286.2 664.15 287.25 662.9 287.65 L662.8 287.7 662.75 287.75 Q652.25 292.6 639.5 290.0 L638.25 289.7 Q630.55 287.8 625.75 281.45 625.45 280.8 625.3 280.05 L625.25 279.55 625.15 279.35"/>
    </path>
  </g>
</svg>
